<?xml version="1.0" encoding="UTF-8"?>
<svg width="85px" height="94px" viewBox="0 0 85 94" version="1.1" xmlns="http://www.w3.org/2000/svg" xmlns:xlink="http://www.w3.org/1999/xlink">
    <!-- Generator: Sketch 55 (78076) - https://sketchapp.com -->
    <title>logo-icon</title>
    <desc>Created with Sketch.</desc>
    <defs>
        <linearGradient x1="63.7755051%" y1="34.7573751%" x2="12.4061044%" y2="56.6384941%" id="linearGradient-1">
            <stop stop-color="#8E2339" offset="0%"></stop>
            <stop stop-color="#D90E5D" offset="100%"></stop>
        </linearGradient>
        <linearGradient x1="63.8927951%" y1="34.7566173%" x2="12.5233888%" y2="56.6134074%" id="linearGradient-2">
            <stop stop-color="#D90E5D" offset="0%"></stop>
            <stop stop-color="#F04F43" offset="57%"></stop>
            <stop stop-color="#FF7B31" offset="100%"></stop>
        </linearGradient>
        <linearGradient x1="63.9952077%" y1="34.7267678%" x2="12.5541409%" y2="56.6181519%" id="linearGradient-3">
            <stop stop-color="#FF7B31" offset="0%"></stop>
            <stop stop-color="#FF7E2F" offset="4%"></stop>
            <stop stop-color="#FFBF00" offset="100%"></stop>
        </linearGradient>
        <linearGradient x1="0%" y1="49.9998665%" x2="100%" y2="49.9998665%" id="linearGradient-4">
            <stop stop-color="#3F0026" offset="0%"></stop>
            <stop stop-color="#8E2339" offset="100%"></stop>
        </linearGradient>
    </defs>
    <g id="Symbols" stroke="none" stroke-width="1" fill="none" fill-rule="evenodd">
        <g id="Footer" transform="translate(-676.000000, -18.000000)" fill-rule="nonzero">
            <g id="Group-38" transform="translate(-1.000000, 0.000000)">
                <g id="Group-37" transform="translate(1.000000, 0.000000)">
                    <g id="Group">
                        <g id="logo-icon" transform="translate(676.000000, 18.000000)">
                            <path d="M21.4227205,61.7028237 L43.943106,48.8553105 C44.6357719,48.4592676 45.0626248,47.7274924 45.0630081,46.9354065 L45.0865355,21.2217403 C45.0878348,20.4286322 44.6614438,19.6951852 43.968208,19.2980741 C43.2749721,18.900963 42.420389,18.9006207 41.726829,19.2971763 L19.2111491,32.1213897 C18.8687732,32.3143849 18.5845304,32.59427 18.3876916,32.9322229 C18.1907326,33.2693201 18.0868677,33.6518319 18.0865414,34.0412937 L18.0865414,59.7782597 C18.0852421,60.5713678 18.5116331,61.3048148 19.204869,61.7019259 C19.8981048,62.099037 20.7526879,62.0993793 21.4462479,61.7028237 L21.4227205,61.7028237 Z" id="Path" fill="url(#linearGradient-1)"></path>
                            <path d="M31.4462453,67.6832726 L53.9619277,54.8500441 C54.6571502,54.4540904 55.0858923,53.7211913 55.0865355,52.92762 L55.0865355,27.21927 C55.0878348,26.4270438 54.6614438,25.6944122 53.9682078,25.2977427 C53.2749719,24.9010731 52.4203887,24.9007312 51.7268287,25.2968459 L29.2299681,38.1300743 C28.8869788,38.3308096 28.6043415,38.6184364 28.411216,38.96328 C28.2121927,39.3008485 28.108206,39.6849904 28.1100658,40.0757724 L28.0865385,65.7794675 C28.0864655,66.5713127 28.5127006,67.3032679 29.2051814,67.7004648 C29.8976622,68.0976617 30.751572,68.099979 31.4462453,67.7065465 L31.4462453,67.6832726 Z" id="Path" fill="url(#linearGradient-2)"></path>
                            <path d="M43.4273749,74.7213329 L65.9603307,61.8911033 C66.6564897,61.4967695 67.0861281,60.7639789 67.0865073,59.9702986 L67.0865073,34.2212586 C67.0907384,33.427585 66.6644675,32.692623 65.9697547,32.2957917 C65.2735597,31.9014028 64.4183086,31.9014028 63.7221136,32.2957917 L41.212718,45.1073727 C40.8698645,45.3004585 40.5852252,45.5804749 40.3881117,45.9185864 C40.1908779,46.2558417 40.0868682,46.638533 40.0865414,47.0281774 L40.0865414,72.7772174 C40.0852403,73.5706976 40.5122262,74.3044887 41.2064292,74.7017861 C41.9006321,75.0990835 42.7564075,75.0994259 43.4509351,74.7026843 L43.4273749,74.7213329 Z" id="Path" fill="url(#linearGradient-3)"></path>
                            <path d="M41.5501068,93.9999957 C39.5721794,94.0014509 37.6300227,93.4738588 35.9258453,92.4721499 L5.54065426,74.6048419 C2.16650377,72.6089486 0.0944388895,68.9883546 0.0865384615,65.0746678 L0.0865384615,28.4016526 C0.0914192245,24.4416136 2.21388627,20.7851387 5.65408474,18.8101761 L35.9542029,1.46158114 C39.4023295,-0.505566235 43.6408562,-0.485788058 47.0703904,1.51345245 L78.604065,19.9419137 C81.9927062,21.9317699 84.0769875,25.558458 84.0865385,29.4815189 L84.0865385,34.6450719 C84.0865385,36.4681095 82.6053222,37.9459734 80.7781493,37.9459734 C78.9509765,37.9459734 77.4697602,36.4681095 77.4697602,34.6450719 L77.4697602,29.4815189 C77.4665662,27.9012714 76.6274167,26.4401172 75.262592,25.6383265 L43.7241911,7.20986525 C42.339905,6.41020358 40.6326993,6.41020358 39.2484132,7.20986525 L8.94356879,24.5207356 C7.55435549,25.3209782 6.69992117,26.8011638 6.70331672,28.4016526 L6.70331672,65.0746678 C6.70620158,66.651313 7.54128824,68.1098552 8.90103236,68.9131446 L39.2862234,86.766306 C40.6713137,87.5795829 42.3873216,87.5885846 43.7809063,86.7898838 L75.2342344,68.710375 C76.6150313,67.9138593 77.4666642,66.4443897 77.4697602,64.8530358 L77.4697602,59.0151558 C77.4697602,57.1921183 78.9509765,55.7142544 80.7781493,55.7142544 C82.6053222,55.7142544 84.0865385,57.1921183 84.0865385,59.0151558 L84.0865385,64.8530358 C84.080507,68.8028973 81.968636,72.451237 78.5426235,74.4303656 L47.0892955,92.5240212 C45.4047807,93.4926502 43.4943523,94.0017037 41.5501068,93.9999957 Z" id="Path" fill="url(#linearGradient-4)"></path>
                        </g>
                    </g>
                </g>
            </g>
        </g>
    </g>
</svg>